<svg xmlns="http://www.w3.org/2000/svg" viewBox="0 0 206.5 288"><defs><style>.cls-1{fill:#1083f4;}.cls-2{fill:#0e3356;stroke:#0e3356;stroke-miterlimit:10;stroke-width:3px;}</style></defs><g id="Layer_2" data-name="Layer 2"><g id="Layer_4" data-name="Layer 4"><path class="cls-1" d="M47.21,164.56c.07.33.14.66.2,1v28.73a15,15,0,0,1-30,0v-15a8.7,8.7,0,0,0-7.64-8.64,9.28,9.28,0,0,0-1.06-.06,8.69,8.69,0,0,0-8.7,8.7v14.54a32.39,32.39,0,0,0,64.77,0h0V177.77a7.85,7.85,0,0,1,15.69,0v43.47h0v39.12a13,13,0,1,1-26,0v-13a7.52,7.52,0,0,0-6.61-7.46,7,7,0,0,0-.93-.07,7.53,7.53,0,0,0-7.53,7.53V260a28,28,0,1,0,56.07,0h0V186.11a7.7,7.7,0,1,1,15.4,0v73.76h0a28,28,0,1,0,56.07,0V247.28a7.53,7.53,0,0,0-7.54-7.53,7,7,0,0,0-.92.06,7.53,7.53,0,0,0-6.61,7.47v13a13,13,0,1,1-26,0V221.15h0V177.72a7.62,7.62,0,0,1,2.3-5.45,7.94,7.94,0,0,1,5.55-2.25,7.77,7.77,0,0,1,7.85,7.7v16.11h0a32.39,32.39,0,0,0,64.77,0V179.29a8.69,8.69,0,0,0-8.7-8.7,9.28,9.28,0,0,0-1.06.06,8.7,8.7,0,0,0-7.65,8.64v15a15,15,0,0,1-30,0V165.56c1.67-9.26,7.06-17.77,9-20.59a87,87,0,1,0-129.66,0c1.85,2.71,6.9,10.66,8.77,19.49"/><circle class="cls-2" cx="140.47" cy="59" r="12.42"/><circle class="cls-2" cx="66.03" cy="59" r="12.42"/><ellipse class="cls-2" cx="103.25" cy="109.32" rx="24.84" ry="18.63"/></g></g></svg>