<?xml version="1.0" encoding="UTF-8"?>
<svg width="467px" height="337px" viewBox="0 0 467 337" version="1.1" xmlns="http://www.w3.org/2000/svg" xmlns:xlink="http://www.w3.org/1999/xlink">
    <!-- Generator: Sketch 63.1 (92452) - https://sketch.com -->
    <title>Group 13</title>
    <desc>Created with Sketch.</desc>
    <g id="Current" stroke="none" stroke-width="1" fill="none" fill-rule="evenodd">
        <g id="Desktop-HD-Copy-18" transform="translate(-707.000000, -260.000000)">
            <g id="Group-13" transform="translate(707.000000, 260.000000)">
                <rect id="Rectangle-Copy-23" fill-opacity="0.632156906" fill="#000000" x="0" y="0" width="467" height="337" rx="10"></rect>
                <g id="Group-12" transform="translate(9.000000, 9.000000)">
                    <g id="Group">
                        <rect id="Rectangle" fill-opacity="0.81" fill="#2C2C2C" x="0" y="0" width="49" height="319" rx="3"></rect>
                        <rect id="Rectangle" fill="#0081FF" x="7" y="7" width="35" height="35" rx="4"></rect>
                        <rect id="Rectangle-Copy-3" fill="#F86464" x="7" y="46" width="35" height="35" rx="4"></rect>
                        <rect id="Rectangle-Copy-4" fill="#8395A9" x="7" y="85" width="35" height="35" rx="4"></rect>
                        <rect id="Rectangle-Copy-5" fill="#FFB000" x="7" y="135" width="35" height="35" rx="4"></rect>
                        <rect id="Rectangle-Copy-6" fill="#3FE13D" x="7" y="174" width="35" height="35" rx="4"></rect>
                        <circle id="Oval" fill-opacity="0.335876038" fill="#8395A9" cx="24.5" cy="127.5" r="3.5"></circle>
                    </g>
                    <g id="Group-11" transform="translate(168.000000, 6.000000)">
                        <rect id="Rectangle" fill-opacity="0.81" fill="#2C2C2C" x="0" y="290" width="252" height="23" rx="4"></rect>
                        <rect id="Rectangle-Copy-25" fill-opacity="0.81" fill="#2C2C2C" x="258" y="290" width="23" height="23" rx="4"></rect>
                        <rect id="Rectangle-Copy-24" fill="#CEDAE9" x="8" y="298" width="57" height="7" rx="2"></rect>
                        <rect id="Rectangle-Copy-26" fill="#CEDAE9" x="266" y="298" width="7" height="7" rx="2"></rect>
                        <g id="Group-10" transform="translate(0.000000, 142.000000)">
                            <g id="Group-8" transform="translate(0.000000, 120.000000)">
                                <rect id="Rectangle-Copy-12" fill="#FFFFFF" x="0" y="0" width="16" height="16" rx="4"></rect>
                                <rect id="Rectangle-Copy-18" fill="#A9BDD5" x="21.5" y="0" width="31" height="7" rx="2"></rect>
                                <rect id="Rectangle-Copy-17" fill="#FFFFFF" x="21.5" y="9" width="47" height="7" rx="1.25"></rect>
                            </g>
                            <g id="Group-7" transform="translate(0.000000, 85.000000)">
                                <rect id="Rectangle-Copy-29" fill="#FFFFFF" x="0" y="0" width="16" height="16" rx="4"></rect>
                                <rect id="Rectangle-Copy-28" fill="#A9BDD5" x="21" y="0" width="31" height="7" rx="2"></rect>
                                <rect id="Rectangle-Copy-27" fill="#FFFFFF" x="21" y="9" width="62" height="7" rx="1.25"></rect>
                                <rect id="Rectangle-Copy-30" fill="#FFFFFF" x="21" y="19" width="48" height="7" rx="1.25"></rect>
                            </g>
                            <g id="Group-9" transform="translate(0.000000, 50.000000)">
                                <rect id="Rectangle-Copy-34" fill="#FFFFFF" x="0" y="0" width="16" height="16" rx="4"></rect>
                                <rect id="Rectangle-Copy-33" fill="#A9BDD5" x="21" y="0" width="31" height="7" rx="2"></rect>
                                <rect id="Rectangle-Copy-32" fill="#FFFFFF" x="21" y="9" width="44" height="7" rx="1.25"></rect>
                                <rect id="Rectangle-Copy-31" fill="#FFFFFF" x="21" y="19" width="94" height="7" rx="1.25"></rect>
                            </g>
                            <rect id="Rectangle-Copy-37" fill="#FFFFFF" x="0" y="25" width="16" height="16" rx="4"></rect>
                            <rect id="Rectangle-Copy-36" fill="#A9BDD5" x="21.5" y="25" width="31" height="7" rx="2"></rect>
                            <rect id="Rectangle-Copy-38" fill="#A9BDD5" x="0" y="11" width="143" height="7" rx="2"></rect>
                            <rect id="Rectangle-Copy-39" fill="#A9BDD5" x="0" y="0" width="58" height="7" rx="2"></rect>
                            <rect id="Rectangle-Copy-35" fill="#FFFFFF" x="21.5" y="34" width="23" height="7" rx="1.25"></rect>
                        </g>
                        <rect id="Rectangle-Copy-40" fill="#A9BDD5" x="0" y="0" width="58" height="7" rx="2"></rect>
                        <rect id="Rectangle-Copy-41" fill="#FFFFFF" x="0" y="9" width="83" height="7" rx="2"></rect>
                    </g>
                    <rect id="Rectangle-Copy-2" fill-opacity="0.811375758" fill="#2C2C2C" x="55" y="0" width="107" height="319" rx="4"></rect>
                    <g id="Group-6" transform="translate(63.000000, 10.000000)">
                        <rect id="Rectangle" fill="#CEDAE9" x="0" y="0" width="58" height="11" rx="4"></rect>
                        <rect id="Rectangle-Copy-7" fill="#CEDAE9" x="77" y="0" width="11" height="11" rx="4"></rect>
                        <g id="Group-2" transform="translate(0.000000, 22.000000)">
                            <path d="M4,0 L84,0 C86.209139,-4.05812251e-16 88,1.790861 88,4 L88,26 L88,26 L0,26 L0,4 C-2.705415e-16,1.790861 1.790861,4.05812251e-16 4,0 Z" id="Rectangle" fill="#0A0A0A"></path>
                            <rect id="Rectangle-Copy-11" fill="#FFFFFF" x="4" y="4" width="18" height="18" rx="4"></rect>
                            <rect id="Rectangle-Copy-15" fill="#FFFFFF" x="26" y="7" width="38" height="6" rx="2"></rect>
                            <rect id="Rectangle-Copy-16" fill="#FFFFFF" x="26" y="15" width="55" height="4" rx="1.25"></rect>
                        </g>
                        <g id="Group-3" transform="translate(0.000000, 52.000000)">
                            <rect id="Rectangle-Copy-8" fill="#0081FF" x="0" y="0" width="88" height="26"></rect>
                            <rect id="Rectangle-Copy-12" fill="#FFFFFF" x="4" y="4" width="18" height="18" rx="4"></rect>
                            <rect id="Rectangle-Copy-18" fill="#FFFFFF" x="26" y="7" width="31" height="6" rx="2"></rect>
                            <rect id="Rectangle-Copy-17" fill="#FFFFFF" x="26" y="15" width="47" height="4" rx="1.25"></rect>
                        </g>
                        <g id="Group-4" transform="translate(0.000000, 82.000000)">
                            <rect id="Rectangle-Copy-9" fill="#0A0A0A" x="0" y="0" width="88" height="26"></rect>
                            <rect id="Rectangle-Copy-13" fill="#FFFFFF" x="4" y="4" width="18" height="18" rx="4"></rect>
                            <rect id="Rectangle-Copy-20" fill="#FFFFFF" x="26" y="7" width="51" height="6" rx="2"></rect>
                            <rect id="Rectangle-Copy-19" fill="#FFFFFF" x="26" y="15" width="43" height="4" rx="1.25"></rect>
                        </g>
                        <g id="Group-5" transform="translate(0.000000, 112.000000)">
                            <path d="M0,0 L88,0 L88,22 C88,24.209139 86.209139,26 84,26 L4,26 C1.790861,26 2.705415e-16,24.209139 0,22 L0,0 L0,0 Z" id="Rectangle-Copy-10" fill="#0A0A0A"></path>
                            <rect id="Rectangle-Copy-14" fill="#FFFFFF" x="4" y="4" width="18" height="18" rx="4"></rect>
                            <rect id="Rectangle-Copy-22" fill="#FFFFFF" x="26" y="7" width="47" height="6" rx="2"></rect>
                            <rect id="Rectangle-Copy-21" fill="#FFFFFF" x="26" y="15" width="38" height="4" rx="1.25"></rect>
                        </g>
                    </g>
                </g>
            </g>
        </g>
    </g>
</svg>